<?xml version="1.0" encoding="UTF-8" standalone="no"?>
<svg
   xmlns:dc="http://purl.org/dc/elements/1.1/"
   xmlns:cc="http://creativecommons.org/ns#"
   xmlns:rdf="http://www.w3.org/1999/02/22-rdf-syntax-ns#"
   xmlns:svg="http://www.w3.org/2000/svg"
   xmlns="http://www.w3.org/2000/svg"
   xmlns:sodipodi="http://sodipodi.sourceforge.net/DTD/sodipodi-0.dtd"
   xmlns:inkscape="http://www.inkscape.org/namespaces/inkscape"
   viewBox="0 0 512 512"
   id="svg2"
   version="1.1"
   inkscape:version="0.48.2 r9819"
   width="100%"
   height="100%"
   sodipodi:docname="icon.svg"
   inkscape:export-filename="/Users/paulrobson/Desktop/icon.png"
   inkscape:export-xdpi="208.00526"
   inkscape:export-ydpi="208.00526">
  <metadata
     id="metadata32">
    <rdf:RDF>
      <cc:Work
         rdf:about="">
        <dc:format>image/svg+xml</dc:format>
        <dc:type
           rdf:resource="http://purl.org/dc/dcmitype/StillImage" />
        <dc:title />
      </cc:Work>
    </rdf:RDF>
  </metadata>
  <defs
     id="defs30" />
  <sodipodi:namedview
     pagecolor="#ffffff"
     bordercolor="#666666"
     borderopacity="1"
     objecttolerance="10"
     gridtolerance="10"
     guidetolerance="10"
     inkscape:pageopacity="0"
     inkscape:pageshadow="2"
     inkscape:window-width="1698"
     inkscape:window-height="1211"
     id="namedview28"
     showgrid="false"
     inkscape:zoom="1.9980469"
     inkscape:cx="256"
     inkscape:cy="256"
     inkscape:window-x="93"
     inkscape:window-y="25"
     inkscape:window-maximized="0"
     inkscape:current-layer="layer1"
     showguides="false">
    <inkscape:grid
       type="xygrid"
       id="grid3004" />
  </sodipodi:namedview>
  <rect
     style="fill:#ffff00;stroke:#000000;stroke-width:3.72734475;stroke-opacity:1"
     id="rect3029"
     width="439.1626"
     height="470.48563"
     x="36.418701"
     y="20.757187"
     ry="172.59715" />
  <rect
     style="fill:#000000;fill-opacity:1;stroke:none"
     id="rect3017"
     width="397.26743"
     height="432.76132"
     x="62.732586"
     y="37.943867"
     ry="151.83467" />
  <path
     inkscape:connector-curvature="0"
     id="path22"
     d="m 320.81221,161.40913 -58.89145,46.34291 -58.89146,-46.34291 c 49.39766,-89.302339 72.00523,-87.692557 117.78104,0 z" />
  <path
     style="fill:none;stroke:#000000;stroke-width:17.41469383"
     inkscape:connector-curvature="0"
     id="path24"
     d="m 83.953146,308.63117 82.982904,16.49378" />
  <path
     style="fill:none;stroke:#000000;stroke-width:17.41469383"
     inkscape:connector-curvature="0"
     id="path26"
     d="m 442.87667,308.63117 -82.9829,16.49378" />
  <g
     inkscape:groupmode="layer"
     id="layer1"
     inkscape:label="Graphic">
    <g
       id="g2991"
       transform="translate(4,0)">
      <path
         id="path3803"
         d="m 255.98681,85.686216 c -12.65667,0 -24.98161,1.390729 -36.85098,4.009555 5.87169,23.818409 37.98617,160.261039 38.27543,160.382219 0.28474,0.1193 119.48689,-69.12843 143.86918,-83.01362 C 371.33466,118.24121 317.45953,85.686216 255.98681,85.686216 z"
         style="fill-opacity:1;stroke:#ffffff;stroke-width:16;stroke-opacity:1"
         inkscape:connector-curvature="0" />
      <path
         id="path3801"
         d="M 218.95118,89.72215 C 148.8759,105.2641 95.05293,163.97595 86.79412,236.51936 c 22.29849,1.65509 168.40273,14.24177 168.61236,14.00707 0.20714,-0.23191 -31.21888,-136.87844 -36.4553,-160.80428 z"
         style="fill-opacity:1;stroke:#ffffff;stroke-width:16;stroke-opacity:1"
         inkscape:connector-curvature="0" />
      <path
         id="path3020"
         d="m 401.38596,167.22264 c -24.06671,14.42541 -142.89167,84.268 -142.91956,84.56996 -0.031,0.33608 129.27129,111.5651 129.04438,111.81912 -0.22689,0.25403 -130.05361,-110.39048 -130.38969,-110.31553 -0.33608,0.075 -68.42588,154.86996 -68.74277,154.73719 -0.31689,-0.13277 67.02018,-155.21241 66.84351,-155.50217 -0.16325,-0.26777 -146.26701,-13.56934 -168.454089,-15.85357 -0.715776,6.34021 -1.081525,12.77764 -1.081525,19.30917 0,94.06073 76.239854,170.32697 170.300594,170.32697 94.06074,0 170.32697,-76.26624 170.32697,-170.32697 0,-32.51986 -9.11419,-62.91702 -24.92782,-88.76417 z"
         style="fill-opacity:1;stroke:#ffffff;stroke-width:16;stroke-opacity:1"
         inkscape:connector-curvature="0" />
    </g>
  </g>
</svg>
