<?xml version="1.0" encoding="UTF-8" standalone="no"?>
<!-- Generator: Adobe Illustrator 16.0.4, SVG Export Plug-In . SVG Version: 6.00 Build 0)  -->

<svg
   xmlns:dc="http://purl.org/dc/elements/1.1/"
   xmlns:cc="http://creativecommons.org/ns#"
   xmlns:rdf="http://www.w3.org/1999/02/22-rdf-syntax-ns#"
   xmlns:svg="http://www.w3.org/2000/svg"
   xmlns="http://www.w3.org/2000/svg"
   xmlns:sodipodi="http://sodipodi.sourceforge.net/DTD/sodipodi-0.dtd"
   xmlns:inkscape="http://www.inkscape.org/namespaces/inkscape"
   version="1.1"
   id="Layer_1"
   x="0px"
   y="0px"
   width="512"
   height="512"
   viewBox="0 0 512 512"
   enable-background="new 0 0 32 32"
   xml:space="preserve"
   inkscape:version="0.48.2 r9819"
   sodipodi:docname="launch.svg"><metadata
   id="metadata23"><rdf:RDF><cc:Work
       rdf:about=""><dc:format>image/svg+xml</dc:format><dc:type
         rdf:resource="http://purl.org/dc/dcmitype/StillImage" /><dc:title /></cc:Work></rdf:RDF></metadata><defs
   id="defs21">
	
	
	
	
	
	
	
</defs><sodipodi:namedview
   pagecolor="#ffffff"
   bordercolor="#666666"
   borderopacity="1"
   objecttolerance="10"
   gridtolerance="10"
   guidetolerance="10"
   inkscape:pageopacity="0"
   inkscape:pageshadow="2"
   inkscape:window-width="1157"
   inkscape:window-height="861"
   id="namedview19"
   showgrid="false"
   inkscape:zoom="1.3144531"
   inkscape:cx="256"
   inkscape:cy="256"
   inkscape:window-x="75"
   inkscape:window-y="106"
   inkscape:window-maximized="0"
   inkscape:current-layer="Layer_1" />

<g
   id="g2994"
   transform="matrix(16,0,0,16,0,-2.1694913)"><rect
     y="0.13559321"
     x="0"
     height="32"
     width="32"
     id="rect3007"
     style="fill:#000000;fill-opacity:1;stroke:none" /><path
     d="m 11.337019,15.048109 c -0.02742,0.172492 0.08967,0.333561 0.261594,0.362119 0.01771,0.0029 0.03484,0.004 0.05198,0.004 0.151931,0 0.286155,-0.109093 0.313,-0.264451 0.0069,-0.0377 0.177632,-0.948707 1.283981,-1.238859 0.169637,-0.04455 0.271305,-0.218186 0.226753,-0.387822 -0.04512,-0.169054 -0.218185,-0.26958 -0.388393,-0.226742 -1.517018,0.398673 -1.740344,1.697506 -1.748911,1.751767 z"
     id="path5"
     inkscape:connector-curvature="0"
     style="fill:#ffffff;fill-opacity:1" /><path
     d="m 12.900872,12.664632 c 0.170208,-0.04512 0.271876,-0.218186 0.227324,-0.387822 -0.04455,-0.169637 -0.217043,-0.269591 -0.387821,-0.226182 -2.485145,0.65113 -2.8461224,2.756449 -2.8604016,2.84555 -0.027416,0.172493 0.089673,0.334133 0.2627366,0.36212 0.01714,0.0023 0.03427,0.0045 0.05141,0.0045 0.152501,0 0.286725,-0.111377 0.312999,-0.266735 0.012,-0.07254 0.321567,-1.788893 2.393758,-2.3315 z"
     id="path7"
     inkscape:connector-curvature="0"
     style="fill:#ffffff;fill-opacity:1" /><path
     d="m 12.648988,11.224721 c 0.169637,-0.04455 0.271304,-0.217614 0.226753,-0.387822 -0.04455,-0.170207 -0.218757,-0.270161 -0.387251,-0.226753 -3.4572698,0.905299 -3.959325,3.821674 -3.9787447,3.945617 -0.027416,0.173064 0.090244,0.335846 0.2633077,0.363262 0.017135,0.0029 0.033699,0.004 0.050262,0.004 0.1530726,0 0.2878679,-0.111378 0.3129992,-0.267877 0.00457,-0.02628 0.4523637,-2.629079 3.5126738,-3.430425 z"
     id="path9"
     inkscape:connector-curvature="0"
     style="fill:#ffffff;fill-opacity:1" /><circle
     transform="matrix(0.57116636,0,0,0.57116636,7.7757965,5.5593221)"
     cx="16.841999"
     cy="5.9660001"
     r="5.9660001"
     id="circle11"
     d="m 22.807999,5.9660001 c 0,3.2949308 -2.671069,5.9659999 -5.966,5.9659999 -3.294931,0 -5.966,-2.6710691 -5.966,-5.9659999 C 10.875999,2.6710692 13.547068,0 16.841999,0 c 3.294931,0 5.966,2.6710692 5.966,5.9660001 z"
     sodipodi:cx="16.841999"
     sodipodi:cy="5.9660001"
     sodipodi:rx="5.9660001"
     sodipodi:ry="5.9660001"
     style="fill:#ffffff;fill-opacity:1" /><path
     d="m 13.484033,23.866346 c 0.02628,-1.082931 0.110235,-2.018501 0.238176,-2.843837 V 16.91411 c 0,-0.544894 0.441512,-0.986405 0.986405,-0.986405 h 1.47932 l -1.648957,-2.25782 c -1.535295,1.056657 -3.714866,3.692019 -3.858799,10.197033 h 2.803855 z"
     id="path13"
     inkscape:connector-curvature="0"
     style="fill:#ffffff;fill-opacity:1" /><path
     d="m 19.065471,12.743452 -0.806487,0.340416 c -0.165067,-0.285012 -0.470641,-0.478637 -0.823622,-0.478637 -0.351267,0 -0.654557,0.190769 -0.821337,0.472354 l -0.8082,-0.346698 c -0.118232,-0.05083 -0.242175,-0.03884 -0.348983,0.03256 -0.107379,0.07083 -0.159927,0.190198 -0.159927,0.318711 v 1.006395 c 0,0.121087 0.04569,0.234749 0.142792,0.307287 0.0971,0.07197 0.217043,0.09424 0.33299,0.05826 0.316426,-0.09653 0.706533,-0.216472 0.93043,-0.284441 0.175919,0.211903 0.436371,0.349554 0.733378,0.349554 0.287296,0 0.541465,-0.130226 0.717384,-0.330706 0.227896,0.06968 0.628855,0.190199 0.950421,0.286726 0.115947,0.03484 0.215901,0.01257 0.312428,-0.0594 0.0971,-0.07254 0.129084,-0.1862 0.129084,-0.306717 v -1.013249 c 0,-0.127941 -0.03884,-0.247886 -0.145076,-0.31871 -0.10738,-0.07082 -0.217044,-0.08339 -0.335275,-0.0337 z"
     id="path15"
     inkscape:connector-curvature="0"
     style="fill:#ffffff;fill-opacity:1" /><path
     d="m 20.773829,13.227801 c -0.0029,-0.0012 -0.0063,-0.0023 -0.0091,-0.004 l -2.092754,2.70333 h 1.596981 c 0.01428,0.01028 2.686766,1.980234 2.029925,3.401296 -0.280442,0.606578 -0.647132,0.780784 -0.903014,0.85675 -0.012,0.0034 -0.02571,0.0052 -0.0377,0.0086 -0.55346,0.151359 -1.238288,0.03712 -1.832872,-0.147933 -0.03141,-0.01028 -0.05026,-0.04055 -0.04512,-0.07254 0.0052,-0.03255 0.03255,-0.05598 0.06511,-0.05484 0.231893,0.0012 0.440369,-0.004 0.620286,-0.01314 0.181631,-0.01028 0.323852,-0.161068 0.323852,-0.343841 V 17.48528 c 0,-0.338701 -0.274731,-0.612861 -0.612862,-0.612861 h -4.912035 c -0.338701,0 -0.613432,0.27416 -0.613432,0.612861 v 6.381071 h 6.144607 l -0.0069,-0.147361 c -2.019073,-0.169636 -2.979775,-1.161181 -3.362456,-1.710072 -0.0297,-0.04284 -0.02628,-0.09995 0.008,-0.138793 0.03484,-0.03827 0.09082,-0.04912 0.137081,-0.02456 0.632281,0.332418 2.023642,0.960701 3.513815,0.960701 0.173635,0 0.348983,-0.01142 0.524331,-0.02913 0.269019,-0.02799 0.539752,-0.07654 0.807629,-0.155357 1.118914,-0.33242 1.982518,-1.109206 2.495425,-2.24754 1.437055,-3.180826 -1.737487,-5.988108 -3.838809,-7.146434 z m -5.302708,5.191903 c -0.219328,0 -0.396961,-0.178204 -0.396961,-0.39696 0,-0.218757 0.177633,-0.396961 0.396961,-0.396961 0.219328,0 0.396961,0.178204 0.396961,0.396961 0,0.218756 -0.177633,0.39696 -0.396961,0.39696 z"
     id="path17"
     inkscape:connector-curvature="0"
     style="fill:#ffffff;fill-opacity:1" /><rect
     y="9.1016893"
     x="6.5084743"
     height="0.55932117"
     width="1.4915231"
     id="rect3009"
     style="fill:#000000;fill-opacity:1;stroke:none" /><text
     sodipodi:linespacing="125%"
     id="text3011"
     y="27.521452"
     x="9.0813169"
     style="font-size:3.683604px;font-style:italic;font-variant:normal;font-weight:bold;font-stretch:normal;line-height:125%;letter-spacing:0px;word-spacing:0px;fill:#ffffff;fill-opacity:1;stroke:none;font-family:Brush Script MT;-inkscape-font-specification:Brush Script MT Bold Italic"
     xml:space="preserve"><tspan
       y="27.521452"
       x="9.0813169"
       id="tspan3013"
       sodipodi:role="line">Paul Robson</tspan></text>
</g>
</svg>